<mxfile host="app.diagrams.net" modified="2022-05-29T19:32:38.337Z" agent="5.0 (Macintosh; Intel Mac OS X 10_15_7) AppleWebKit/537.36 (KHTML, like Gecko) Chrome/102.0.5005.61 Safari/537.36" etag="ecJrQ4bn_qMrHELn6i9C" version="18.1.3" type="github" pages="2">
  <diagram id="vkxZYZPCdLm4a7nPJHYq" name="Page-1">
    <mxGraphModel dx="1426" dy="1842" grid="1" gridSize="10" guides="1" tooltips="1" connect="1" arrows="1" fold="1" page="1" pageScale="1" pageWidth="827" pageHeight="1169" math="0" shadow="0">
      <root>
        <mxCell id="0" />
        <mxCell id="1" parent="0" />
        <mxCell id="C61q2XhHyYQduEXtUaEE-2" value="Открытый чемпионат&amp;nbsp;РБ&lt;br&gt;Открытый кубок РБ&lt;br&gt;Открытое первенство РБ&lt;br&gt;Олимпийские дни молодежи РБ" style="rounded=0;whiteSpace=wrap;html=1;" parent="1" vertex="1">
          <mxGeometry x="10" y="-1110" width="770" height="70" as="geometry" />
        </mxCell>
        <mxCell id="C61q2XhHyYQduEXtUaEE-3" value="Первенство РБ в программе соревнований&amp;nbsp;&quot;Весёлый Дельфин&quot;&lt;br&gt;Спартакиада детско-юношеских спортивных школ&lt;br&gt;Открытый чемпионат РБ на короткой воде" style="rounded=0;whiteSpace=wrap;html=1;" parent="1" vertex="1">
          <mxGeometry x="10" y="-1030" width="770" height="60" as="geometry" />
        </mxCell>
        <mxCell id="C61q2XhHyYQduEXtUaEE-4" value="РЕСПУБЛИКАНСКИЕ СОРЕВНОВАНИЯ" style="rounded=0;whiteSpace=wrap;html=1;labelBackgroundColor=none;fillColor=#ffe6cc;strokeColor=#d79b00;" parent="1" vertex="1">
          <mxGeometry x="10" y="-1160" width="770" height="40" as="geometry" />
        </mxCell>
        <mxCell id="C61q2XhHyYQduEXtUaEE-5" value="ГОРОДСКИЕ СОРЕВНОВАНИЯ" style="rounded=0;whiteSpace=wrap;html=1;labelBackgroundColor=none;fillColor=#ffe6cc;strokeColor=#d79b00;" parent="1" vertex="1">
          <mxGeometry x="10" y="-950" width="770" height="40" as="geometry" />
        </mxCell>
        <mxCell id="C61q2XhHyYQduEXtUaEE-6" value="Первенство г.Минска&lt;br&gt;Открытый кубок РБ&lt;br&gt;Открытое первенство РБ&lt;br&gt;Олимпийские дни молодежи РБ" style="rounded=0;whiteSpace=wrap;html=1;" parent="1" vertex="1">
          <mxGeometry x="10" y="-900" width="770" height="70" as="geometry" />
        </mxCell>
      </root>
    </mxGraphModel>
  </diagram>
  <diagram id="aLGUmYWIf1SZQ463Ggjz" name="Page-2">
    <mxGraphModel dx="1188" dy="561" grid="1" gridSize="10" guides="1" tooltips="1" connect="1" arrows="1" fold="1" page="1" pageScale="1" pageWidth="827" pageHeight="1169" math="0" shadow="0">
      <root>
        <mxCell id="0" />
        <mxCell id="1" parent="0" />
        <mxCell id="4o87-K99DMD4rvlbfCvo-3" style="edgeStyle=orthogonalEdgeStyle;rounded=0;orthogonalLoop=1;jettySize=auto;html=1;entryX=0;entryY=0.5;entryDx=0;entryDy=0;fontFamily=Helvetica;fontSize=12;fontColor=default;endArrow=none;endFill=0;" edge="1" parent="1" source="4o87-K99DMD4rvlbfCvo-4">
          <mxGeometry relative="1" as="geometry">
            <mxPoint x="200" y="25" as="targetPoint" />
          </mxGeometry>
        </mxCell>
        <mxCell id="4o87-K99DMD4rvlbfCvo-4" value="Соревнование" style="rounded=0;whiteSpace=wrap;html=1;fillColor=#dae8fc;strokeColor=#6c8ebf;" vertex="1" parent="1">
          <mxGeometry x="10" y="10" width="160" height="30" as="geometry" />
        </mxCell>
        <mxCell id="4o87-K99DMD4rvlbfCvo-5" value="Наименование&lt;br&gt;Страна&lt;br&gt;Дата начала&lt;br&gt;Дата окончание&lt;br&gt;Описание" style="rounded=0;whiteSpace=wrap;html=1;align=center;" vertex="1" parent="1">
          <mxGeometry x="10" y="40" width="160" height="100" as="geometry" />
        </mxCell>
        <mxCell id="4o87-K99DMD4rvlbfCvo-10" value="Страна" style="rounded=0;whiteSpace=wrap;html=1;fillColor=#dae8fc;strokeColor=#6c8ebf;" vertex="1" parent="1">
          <mxGeometry x="200" y="10" width="160" height="30" as="geometry" />
        </mxCell>
        <mxCell id="4o87-K99DMD4rvlbfCvo-11" value="Страна" style="rounded=0;whiteSpace=wrap;html=1;align=center;" vertex="1" parent="1">
          <mxGeometry x="200" y="40" width="160" height="30" as="geometry" />
        </mxCell>
        <mxCell id="4o87-K99DMD4rvlbfCvo-12" value="Бассейн" style="rounded=0;whiteSpace=wrap;html=1;fillColor=#dae8fc;strokeColor=#6c8ebf;" vertex="1" parent="1">
          <mxGeometry x="390" y="90" width="160" height="30" as="geometry" />
        </mxCell>
        <mxCell id="4o87-K99DMD4rvlbfCvo-13" value="Наименование&lt;br&gt;Город&lt;br&gt;Адрес&lt;br&gt;Метро&lt;br&gt;Расстояние от метро&lt;br&gt;Телефоны&lt;br&gt;Координаты GPS" style="rounded=0;whiteSpace=wrap;html=1;align=center;" vertex="1" parent="1">
          <mxGeometry x="390" y="120" width="160" height="100" as="geometry" />
        </mxCell>
        <mxCell id="4o87-K99DMD4rvlbfCvo-14" style="edgeStyle=orthogonalEdgeStyle;rounded=0;orthogonalLoop=1;jettySize=auto;html=1;entryX=0;entryY=0.5;entryDx=0;entryDy=0;fontFamily=Helvetica;fontSize=12;fontColor=default;endArrow=none;endFill=0;" edge="1" parent="1" source="4o87-K99DMD4rvlbfCvo-15">
          <mxGeometry relative="1" as="geometry">
            <mxPoint x="390" y="105" as="targetPoint" />
          </mxGeometry>
        </mxCell>
        <mxCell id="4o87-K99DMD4rvlbfCvo-15" value="Место проведения" style="rounded=0;whiteSpace=wrap;html=1;fillColor=#dae8fc;strokeColor=#6c8ebf;" vertex="1" parent="1">
          <mxGeometry x="200" y="90" width="160" height="30" as="geometry" />
        </mxCell>
        <mxCell id="4o87-K99DMD4rvlbfCvo-16" value="Дата проведения&lt;br&gt;Время начала&lt;br&gt;Дистанция" style="rounded=0;whiteSpace=wrap;html=1;align=center;" vertex="1" parent="1">
          <mxGeometry x="200" y="120" width="160" height="50" as="geometry" />
        </mxCell>
        <mxCell id="4o87-K99DMD4rvlbfCvo-19" value="Дистанции бассейна" style="rounded=0;whiteSpace=wrap;html=1;fillColor=#dae8fc;strokeColor=#6c8ebf;" vertex="1" parent="1">
          <mxGeometry x="580" y="90" width="160" height="30" as="geometry" />
        </mxCell>
        <mxCell id="4o87-K99DMD4rvlbfCvo-20" value="Дистанция #&lt;br&gt;Количество дорожек" style="rounded=0;whiteSpace=wrap;html=1;align=center;" vertex="1" parent="1">
          <mxGeometry x="580" y="120" width="160" height="40" as="geometry" />
        </mxCell>
        <mxCell id="4o87-K99DMD4rvlbfCvo-21" style="edgeStyle=orthogonalEdgeStyle;rounded=0;orthogonalLoop=1;jettySize=auto;html=1;entryX=0;entryY=0.5;entryDx=0;entryDy=0;fontFamily=Helvetica;fontSize=12;fontColor=default;endArrow=none;endFill=0;" edge="1" parent="1">
          <mxGeometry relative="1" as="geometry">
            <mxPoint x="580" y="104.88" as="targetPoint" />
            <mxPoint x="550" y="104.88" as="sourcePoint" />
          </mxGeometry>
        </mxCell>
        <mxCell id="4o87-K99DMD4rvlbfCvo-25" value="Участники" style="rounded=0;whiteSpace=wrap;html=1;fillColor=#dae8fc;strokeColor=#6c8ebf;" vertex="1" parent="1">
          <mxGeometry x="200" y="250" width="160" height="30" as="geometry" />
        </mxCell>
        <mxCell id="4o87-K99DMD4rvlbfCvo-26" value="Дата проведения&lt;br&gt;Время начала&lt;br&gt;Дистанция" style="rounded=0;whiteSpace=wrap;html=1;align=center;" vertex="1" parent="1">
          <mxGeometry x="200" y="280" width="160" height="50" as="geometry" />
        </mxCell>
        <mxCell id="4o87-K99DMD4rvlbfCvo-27" style="edgeStyle=orthogonalEdgeStyle;rounded=0;orthogonalLoop=1;jettySize=auto;html=1;entryX=0;entryY=0.5;entryDx=0;entryDy=0;fontFamily=Helvetica;fontSize=12;fontColor=default;endArrow=none;endFill=0;" edge="1" parent="1">
          <mxGeometry relative="1" as="geometry">
            <mxPoint x="200" y="104.58" as="targetPoint" />
            <mxPoint x="170" y="104.58000000000011" as="sourcePoint" />
          </mxGeometry>
        </mxCell>
        <mxCell id="4o87-K99DMD4rvlbfCvo-28" style="edgeStyle=orthogonalEdgeStyle;rounded=0;orthogonalLoop=1;jettySize=auto;html=1;entryX=0;entryY=0.5;entryDx=0;entryDy=0;fontFamily=Helvetica;fontSize=12;fontColor=default;endArrow=none;endFill=0;" edge="1" parent="1">
          <mxGeometry relative="1" as="geometry">
            <mxPoint x="200" y="264.58000000000004" as="targetPoint" />
            <mxPoint x="170" y="264.58000000000015" as="sourcePoint" />
          </mxGeometry>
        </mxCell>
        <mxCell id="4o87-K99DMD4rvlbfCvo-29" value="Отборочный для:" style="rounded=0;whiteSpace=wrap;html=1;fillColor=#dae8fc;strokeColor=#6c8ebf;" vertex="1" parent="1">
          <mxGeometry x="200" y="350" width="160" height="30" as="geometry" />
        </mxCell>
        <mxCell id="4o87-K99DMD4rvlbfCvo-30" value="Список соревнований" style="rounded=0;whiteSpace=wrap;html=1;align=center;" vertex="1" parent="1">
          <mxGeometry x="200" y="380" width="160" height="50" as="geometry" />
        </mxCell>
        <mxCell id="4o87-K99DMD4rvlbfCvo-31" style="edgeStyle=orthogonalEdgeStyle;rounded=0;orthogonalLoop=1;jettySize=auto;html=1;entryX=0;entryY=0.5;entryDx=0;entryDy=0;fontFamily=Helvetica;fontSize=12;fontColor=default;endArrow=none;endFill=0;" edge="1" parent="1">
          <mxGeometry relative="1" as="geometry">
            <mxPoint x="200" y="364.58000000000004" as="targetPoint" />
            <mxPoint x="170" y="364.58000000000015" as="sourcePoint" />
          </mxGeometry>
        </mxCell>
      </root>
    </mxGraphModel>
  </diagram>
</mxfile>
